<svg id="Layer_1" data-name="Layer 1" xmlns="http://www.w3.org/2000/svg" viewBox="0 0 266.63 367.85"><defs><style>.cls-1{fill:#2a2a2a;}.cls-2{fill:#2d2828;}</style></defs><title>logo</title><path class="cls-1" d="M550.34,417.5c-1.23-1.78-2.54-3.5-3.83-5.25-2.47-3.36-5-6.71-7.42-10.09-1-1.31-1.81-2.69-2.71-4l0,0c-1.64-1.77-3.31-3.51-4.9-5.32-.77-.87-1.09-2-2.2-2.74a1.44,1.44,0,0,1-.33-2.44l-.19-.18c-.71,0-1.4.18-1.8-.09s-.43-1.2-.61-1.82c-1.62.7-1.28-1.12-2-1.62.19-.23.33-.39.45-.56-.27-.31-.52-.63-.77-.94-.76-.09-1-.42-1.63-1.62a11.38,11.38,0,0,0-2-2.63c-.47-.22-1-.4-1.76-.72l1.29-.86c-1-.77-2-1.45-2.85-2.21s-2.24-1.32-1.33-3l-1.15.15a23.79,23.79,0,0,0-1.68-2.64c-1.18-1.4-2.53-2.66-3.71-4.06a4.59,4.59,0,0,1-1.2-2.26c-.07-.89-.35-1.11-1.06-1.53-1.1-.66-2.53-1.59-2.77-2.64a6,6,0,0,0-2-3.13,6.72,6.72,0,0,1-1.84-2.14c-.24-.67-.35-.72-1-.85a1.73,1.73,0,0,1-1.3-2.72,6.54,6.54,0,0,1,2.13-2.26,2.14,2.14,0,0,0,1.28-1.85c.23-1.1.3-2.3,1.87-2.37.16,0,.33-.31.45-.5a24,24,0,0,1,3.06-3.93,32.24,32.24,0,0,0,3.63-5.23,8.34,8.34,0,0,0,1.19-2.29c.53-2.07,2.48-3.29,3-5.32a10.6,10.6,0,0,1,2.33-4.34c1-1.16.72-3,1.92-4.12.24-.23-.44-1.23-.3-1.79s.92-.86,1.15-1.4a52,52,0,0,0,2.34-6.07c.66-2.35,1.63-4.58,1.38-7.21a13.08,13.08,0,0,1,1.06-5.67,29.76,29.76,0,0,0,1.3-6.2c.19-1.2.45-2.39.67-3.58.07-.39.28-.85.14-1.16-.57-1.35.11-2.45.46-3.68.44-1.58,1.64-3.28-.14-4.87-.22-.2-.19-.82-.08-1.19a14.48,14.48,0,0,0-.09-6.45c-.41-2.39-.29-4.87-.59-7.29-.46-3.63-1.12-7.22-1.61-10.85-.36-2.67-2-5.19-.86-8-1.61-.8-1.71-2.37-2.21-3.68-1.32-3.48-2.47-7-3.93-10.43a46.27,46.27,0,0,0-3.31-5.9c-.79-1.31-1.11-2.91-1.86-4.09-1.55-2.45-2.93-5.07-4.63-7.34-2.51-3.37-4.64-7.11-7.93-9.89-.18-.15-.48-.32-.49-.49-.07-1.08-1.28-1.33-1.53-1.91a4.77,4.77,0,0,0-1.68-2.2,7.44,7.44,0,0,1-1.92-1.5,42.52,42.52,0,0,0-8.4-8.44c-2.13-1.75-4.33-3.43-6.4-5.25-2.91-2.54-6.26-4.44-9.38-6.67a50.51,50.51,0,0,0-5.12-2.92c-2.92-1.59-5.83-3.19-8.79-4.7a10.33,10.33,0,0,0-2.33-.58c-.91-.22-1.84-.41-2.73-.7-.53-.17-1-.58-1.51-.73-2.31-.7-4.65-1.33-7-2a3,3,0,0,1-1.3-.61c-1-1-2.19-1-3.37-1.18-3.71-.7-7.41-1.43-11.46-2.21.25-1.58.48-2.9.67-4.23.39-2.79-.55-5.75,1.07-8.42.23-.38-.08-1.08-.13-1.63a7.18,7.18,0,0,1-.14-1.59q.51-5,1.13-10.06c.06-.52.72-1.24.55-1.48-1.39-2,.57-4.09-.36-6.09a4.1,4.1,0,0,1,0-2c.21-1.84.58-3.66.71-5.5.14-2.1-.1-4.23.19-6.3a44.57,44.57,0,0,0,.73-6.14c0-3,.35-5.92.53-8.88s.37-6.18.57-9.27c.1-1.6.2-3.19.34-4.79.39-4.51.84-9,1.2-13.52.32-3.89.53-7.78.84-11.67a19.17,19.17,0,0,1,.64-2.7c-1.2-.48-.1-2.73-2.31-3.22-.27,3.17-.52,6.23-.79,9.28,0,.4-.21.79-.27,1.19-.23,1.44-.51,2.88-.62,4.33q-.58,7.14-1.06,14.29c-.32,5.12-.57,10.24-.87,15.36,0,.48-.17,1-.21,1.44a70.76,70.76,0,0,0-.74,8.68c.07,2.35-.21,4.64-.36,6.94-.34,5.26-.78,10.52-1.18,15.78-.23,3.16.18,6.36-.77,9.47a8.91,8.91,0,0,0-.17,1.95q-.58,8.88-1.17,17.77c0,.21-.22.41-.39.69a8.65,8.65,0,0,1-2.4-.15c-3-1.07-6.28-.72-9.29-1.53-2.3-.62-4.8.84-6.9-.88,0,0-.26.19-.41.22a20.39,20.39,0,0,1-2.32.38c-2.75.18-5.49.29-8.23.48a27.34,27.34,0,0,1-4.82.4c-1.57-.17-3,.39-4.47.44s-3.42-.68-4.69,1a.82.82,0,0,1-.7.13c-1.13-.33-2.26-.76-3.24.33l-.77-.84c-.58,1.76-2,2-3.45,2.28-1,.18-2.26.13-3.08.68-1.32.88-2.9.66-4.23,1.34a5.08,5.08,0,0,1-.61-.81L363,163.67l-1.09-.41c-.95,1.12-1,1.52-1.68,1.26a3.17,3.17,0,0,1-1.62,1c-1.22.31-2.42.67-3.63,1.05a5.08,5.08,0,0,1-.62.6l0-.41c-.33.11-.66.25-1,.36.08.18.16.37.25.56-2.46,1-5.4.84-7.17,3.33l-.88-.72c-.58.27-1.15.57-1.72.86l-1,1.59-1.22-.42c-.28.16-.56.33-.83.51-.16.76-.1,1.47-.94,2a1.42,1.42,0,0,1-1.7-.09c-1.35,1.11-2.66,2.3-4,3.44l.58.39c-.61.23-1.32.44-1.82.62-.21.17-.43.32-.64.48,0,1.73-2.22,1.13-2.47,2.44l-1.2-.31h-.07c-1.09,2.36-3.77,3.19-5.23,5.25-.13.19-.58.14-.89.21l-2.73.64c-.08,1.79-.55,3.26-2.45,3.81-.2.06-.36.29-.5.47-.92,1.26-1.61,2.81-2.79,3.72s-2,2.38-3.68,2.82c-.36.09-.51.95-.81,1.42-.88,1.44-1.78,2.86-2.68,4.28-.17.26-.48.48-.57.76A19.74,19.74,0,0,1,302,212a10.32,10.32,0,0,0-1.39,2c-2.17,4.51-3.95,9.24-6.51,13.5-2.42,4-3.48,8.45-4.73,12.79-.69,2.41-2.14,4.67-1.7,7.57.31,2-1.18,4.22-1.25,6.36-.08,2.59-1.38,4.53-2.58,6.74l1.14,1.32a42.39,42.39,0,0,0-.68,4.26c-.09,1.61.07,3.23.09,4.85,0,2,0,4,0,6a8.61,8.61,0,0,0-.06,2.67,4,4,0,0,1-.07,3.06,2.8,2.8,0,0,0-.21,1.39c.54,3.42.8,6.93,1.8,10.2.79,2.57,1,5.26,2.06,7.8.84,2,.91,4.33,2,6.35,1,1.86,1,4.18,2.51,5.87.1.11.08.31.15.46a52.59,52.59,0,0,1,2.13,4.88c.4,1.19,1.69,2.28.86,3.73a54.72,54.72,0,0,1,2.81,4.88,6.84,6.84,0,0,1,3,5.36c.47.73,1,1.44,1.51,2.14l.28-1,.52.05a4.08,4.08,0,0,0,0,1.4,4.91,4.91,0,0,0,.85,1.14l-.26.13c1.15,1.25,2.32,2.5,3.48,3.75l.32-.09.13.58c.4.42.8.85,1.19,1.28l.75.16-.13.51c1.21,1.31,2.41,2.62,3.58,3.94a.91.91,0,0,1,.59.68c.83.95,1.66,1.91,2.46,2.87l.45.55.18-.13c.72.62,1.47,1.36,2.32,2a1.47,1.47,0,0,1,.52,1.65l1.19.7-.2.39c.35.33.71.65,1.11,1l.06.05c.45-.29,1-.3,1.65.42,0,.28-.11.54-.18.79l1.57,1.3a2.64,2.64,0,0,1,1.57.26l-.68.48,1.63,1.33.54.1a1.57,1.57,0,0,1-.1.26c.47.39.93.78,1.4,1.15s1,.77,1.44,1.17l.12-.19c0,.13,0,.22.05.33,2.52,2.1,5,4.3,8,5.61.17-.12.42-.15.84,0l-.08.3c.39.17.78.34,1.17.53h0l.05,0c1.63.8,3.31,1.77,4.94,2.49a3.43,3.43,0,0,1,1.22-.17l.44.82.06,0a3.12,3.12,0,0,1,1.87,1.44c1.4.06,2.73.23,3.5,1.54a3,3,0,0,1,.83.61l.05.06c.74-.31,1.5-.88,1.91.51,0,0,.41,0,.63,0,1.43-.12,1.55,0,1.71,1.52,0,0,0,0,0,.05l.25.09a6,6,0,0,1,.92.54l.36.18a1.34,1.34,0,0,1,1.89-.46c.84.49,1.53,1.24,2.36,1.77a2.19,2.19,0,0,0,1.49.41c.65-.16,1.37-.52,1.74.16a1.46,1.46,0,0,1,.06.89c1.61.39,3.23.7,4.83,1l-.15-.09a3.9,3.9,0,0,1,3.45.77l.08,0c6.39,1.45,12.9,3.36,19.38,4.29a4.55,4.55,0,0,0,1.07-.23c.34-.12.86.3,1.31.46.26.09.61.3.79.21,1.33-.71,2.68-.09,4-.17,2.68-.16,5.44.57,8.05-.63a.79.79,0,0,1,.74.1c.48.66,1,.5,1.69.36,1.45-.27,3-.25,4.44-.4,3.18-.31,6.44-.3,9.5-1.09A90.66,90.66,0,0,1,437,386.47a5.1,5.1,0,0,0,.91-.3c2-.71,4.05-1.51,6.12-2.09,1.77-.5,3.71-.48,5.38-1.16s2.88-1.61,4.58-2a14.2,14.2,0,0,1,2.53-.41,4.52,4.52,0,0,0,2.33-1c1.11-.87,2.52-1.17,3.57-2.15.33-.31,1.1-.09,1.64-.25a4.65,4.65,0,0,0,1.73-.75,27.83,27.83,0,0,1,10.63-5.92,2.6,2.6,0,0,0,1.51-1.09c1.08-2,3.16-3,4.43-4.85a9.4,9.4,0,0,1,3.3-2.75c.86-.45,1.52-.8,1.81-1.75a1.89,1.89,0,0,1,.67-.89c1.55-1.15,3.3-2,4.35-3.82.69-1.22,2-2.09,3.29-3.37,1.22,1.74,2.15,3.25,3.27,4.6,3.66,4.42,7.44,8.75,11.1,13.19,2.94,3.56,5.76,7.23,8.64,10.83,1,1.24,2.06,2.41,3,3.65,1.35,1.72,2.6,3.5,3.95,5.22,1.19,1.51,2.5,2.93,3.68,4.45,2.38,3,4.67,6.15,7.07,9.18,3.41,4.31,6.87,8.57,10.33,12.84a28.72,28.72,0,0,0,2.23,2.57c.26.25.84.18,1.27.26C550.38,418.33,550.54,417.79,550.34,417.5ZM313.13,287c0,.19-.05.37-.08.55a21.55,21.55,0,0,0-2.27.4c-.89.25-1.26.75-.39,1.52l-3,2.71c-1.15-.22-.92-1.35-1-2.33l1.88.31v-2.41a34.72,34.72,0,0,1,3.56-1.35C312.18,286.32,312.69,286.81,313.13,287Zm-8.53-.64c1-.93,2.09-.57,3.14-.88v3c-.4.41-.87.87-1.35,1.34l-3.17.06c-.59-.84-.15-1.88,1-2.26.86-.29,1.93.08,3,.16C307.08,286.09,305.71,286.73,304.6,286.38Zm5-1.63L307,282.68l2.81.28C309.76,283.56,309.68,284.16,309.59,284.75Zm1.11-.86v2.45l-1.08-1.56Zm1-15.24-1.37,1.89C309.8,269.12,310,268.86,311.68,268.65Zm-1.34,7.85L308.26,278c.32,1.13.59,2.33-1.26,2.72.06-.41.12-.82.21-1.51-.55,0-1.26-.2-1.65.06s-.27,1-.17,1.53a6.55,6.55,0,0,0,.76,1.52c-.32.5-.63,1-1,1.55l-1.55-1.34c-1.39.85,0,1.52.23,2.58l-1.85-.94,1.41-3.59-2.66.87-1.22-1.11c1.42-1,3.7-.25,4.15-2.67,1,.83,2,1.5,3.06.5.5-.46.54-.41.12-2-1.59,0-3.12-.14-3.18-2.37l-4.18-.53c1.55-1.56,4.15-.91,6.18,1.34,1-1.21,1-1.21,3.64.36l-1.37,1.86Zm-8.94,11.4v1.91C300.32,289.06,300.32,289.06,301.4,287.9Zm-2,5.06.89-2.39C300.85,291.8,300.72,292.52,299.39,293Zm-3.79-24.2c-.1,1.14-.16,1.74-.22,2.4C294.17,270.53,294.17,270.53,295.6,268.76Zm-.32,17.58c.13.43.25.86.38,1.29l-.48.17-.53-1.16Zm1.58-23.29c.08,1.86-.11,2.08-1.81,2ZM295,257.69c0-.08.41-.57.54-.54a7.45,7.45,0,0,1,1.31.73c-.55.36-.93.77-1.11.7A1.83,1.83,0,0,1,295,257.69Zm1.13,14.92c2.06.9,2.11,3.07,3.14,4.6.16.25-.33.93-.54,1.47l-1.83-1.21-.51-2.38c-.22.13-.56.38-.61.33C294.59,274.22,296.43,273.56,296.17,272.61Zm5.19-1.61c-1,1.32-2,.42-3,.12.36-2.24,1.16-4.44-.76-6.32.32-.09.6-.27.76-.2,1.11.53,2.34,2.66,1.8,3.58C299.2,269.77,300.05,270.37,301.36,271Zm-2.06,3.23,3.74,2.3-2,2.69C300.46,277.47,299.94,276,299.3,274.23Zm8.49-6.32.52-.17c.06.4.13.8.17,1.2a2,2,0,0,1-.41.07C308,268.65,307.88,268.28,307.79,267.91Zm.72-4.78c0,.2-.24.39-.66,1-.18-.48-.36-.74-.3-.89s.35-.4.55-.6C308.24,262.8,308.51,263,308.51,263.13ZM308,227.68c.09.77.17,1.41.27,2.27C306.76,229.26,306.66,228.63,308,227.68Zm.24,37c-.52,1-.89,1.71-1.25,2.4C305.88,266.22,306.09,265.72,308.24,264.65Zm-2.19-.81a3.34,3.34,0,0,1,.38.69,1.85,1.85,0,0,1-.07.65l-.52.15-.29-1.32Zm.08,5.28c.3.07.56.78.61,1.23s-.16,1-.4,1.08c-.54.17-.65-.16-.74-.79s-.9-1-1.63-1.72c-.37,1.08-.59,1.76-.82,2.44-.78-2,.58-3.34,1.24-4.94C305,267.38,304.65,268.76,306.13,269.12Zm-2.61-5.42c0,.56.06,1.12,0,1.67a6.22,6.22,0,0,1-.78.06l.12-1.73ZM302,244.25c.92-.06.84.68.76,1.43l-1.45.06C301.61,245.09,301.78,244.27,302,244.25Zm-1.46,4.22c.17-.21.8,0,1.22,0l.18.43-1.67,1.47C300.4,249.34,300.31,248.77,300.55,248.47Zm-1.89,3.77c1.06,1,.84,1.95-.05,3.21C296.61,254.15,299.12,253.27,298.66,252.24Zm.55-23.42c.46,1.77-.22,2.05-1.65,1.45Zm-1,31.13a5.26,5.26,0,0,0,1.41,1.49c.18.14.74,0,1-.24s.05-.62-.09-.88c-.47-.89.32-1,.67-1.45,1,1.73,1.32,3.3.19,5-1-2.65-2.36.42-3.51-.32-.31-1.32-.63-2.65-1-4.08C297.26,259.3,297.74,259.15,298.19,260ZM296,235.33c.05-.76.22-1.51.39-2.56,2.07,2,0,3.38.18,4.92H296A23.26,23.26,0,0,1,296,235.33ZM296,238.8c-.35,1.33-.67,2.5-1,3.66C294.89,239.35,294.89,239.35,296,238.8Zm-1.38,22.6c.63.29,1.17.63.25,1.74-.34-.66-.58-1.1-.82-1.57C294.3,261.48,294.47,261.36,294.57,261.4Zm.28,34.3-.52-.32.9-1.42.48.3C295.42,294.74,295.13,295.22,294.85,295.7Zm3.07,6.19c-.59-1.95-.59-2,.89-2C298.52,300.49,298.25,301.13,297.92,301.89Zm1.83-.83-.89-1.2,1.22-.8.09,1.85Zm-1.7-4.88,1,2.29-2.45.28-.2-.4,1-1-1-.45c-.43-.84.5-1.41,2.33-1.47-1.12-1-3.05-1.25-2.12-3.29h-1.55c.13-.88.24-1.65.4-2.72l1.88-.79c-1.09-1,.53-1.82.15-2.88l-2.18-1.19,1.1-.21,1-.12a8.74,8.74,0,0,1-1.34-1.87,3.33,3.33,0,0,1,0-1.85c.07-.28.61-.44.89-.63,1.23.78,1.2,2.66,2.91,2.82,0,.77-.65,1.56.36,2.38.56.46-.08,1.14-.58,1.13-.64,2.49-1.27,4.92-1.93,7.47l4,2.84Zm10.71,4.47-1-1.4C309.18,299.14,308.79,300,308.76,300.65Zm1.08-1.13c-.35-.09-.58-.63-.93-.73a5,5,0,0,0-2.29-.34c-.45.1-.74.92-1.11,1.41a40.1,40.1,0,0,1-2.53-3.55,6.33,6.33,0,0,1-.27-2.24l-1.75-.6,2.09-1.24c-.24-.45-.43-.83-.71-1.39l2.74.41c.59.61-1.54.78-.26,1.66.34.24.13,1.27.18,1.94s.11,1.31.21,2.34l2.26.26,2.36.25c.86.09-.12,1.44.87,1.45C310.4,299.31,310.08,299.59,309.84,299.52Zm2,.8-1-1.17c.13-1.51,1.29.07,1.83-.49Zm.88-4-.38.36c-.45-.63-.89-1.27-1.4-2a9,9,0,0,1-1.39.77c-.31.11-1,.05-1-.06-.39-1.49-1.52-.62-2.48-.57,1.05-1.29,1.05-1.29,3.71-1.91a6.39,6.39,0,0,0-.39.89,4.08,4.08,0,0,0,0,.8l3.34-.66Zm-.15-5.88c-.56-1.09.45-1.31,1-1.76,1.41.45,1.78,1.45,1.52,2.86-.14-.3-.27-.6-.45-1C314,290,313.12,291.53,312.53,290.4Zm1.31,22.39c-.08.47-.16.93-.25,1.48C312.32,313.6,313.37,313.15,313.84,312.79Zm.57,6.37-.8-.7a4.24,4.24,0,0,1,.95-.43c.12,0,.43.35.39.43A3.55,3.55,0,0,1,314.41,319.16Zm.32-24.54c.13-.77.25-1.53.41-2.53C315.67,293.79,315.67,293.79,314.73,294.62Zm8.37,27.46L322,319.9C324,319.79,323.43,321,323.1,322.08Zm1.69,1.75-.37-.35.81-.86.38.36Zm-.05-9.09-.08-.52,1.62-.28.06.72Zm3.13,15.76-.36-2,2.21,1.41-.22.05Zm2.12,3c-1-1.26-.3-2-.46-2.83l.67,0C330.14,331.52,330.08,332.31,330,333.54Zm-.25-3.65c-.37-1-.75-2-1.19-3.18l1.5-1.1C329.27,327.37,331.08,328.59,329.74,329.89Zm0-5.05-.4-.26.6-1,.43.28Zm168.78,20.37-.39.05a2.42,2.42,0,0,1-.26-.93c0-.26.34-.48.53-.73l.4.07C498.73,344.18,498.64,344.69,498.55,345.21Zm-147.13-146a13.43,13.43,0,0,1,.68,1.37l-.28.16-1.14-1.54C351,199.23,351.36,199.15,351.42,199.24Zm-8.68,45.65s.16-.15.4-.29c.1-.46.19-.93.29-1.39-.08-.17-.18-.34-.33-.62a3.06,3.06,0,0,0,.54-.31c0-.22.09-.43.14-.64.79-3.46,1.52-6.77,2.45-9.93q.15-1.07.33-2.13a1.5,1.5,0,0,1,.59-.78,37.17,37.17,0,0,1,2.89-6.36l.19-.54a31.69,31.69,0,0,1,1.35-3.72c.55-1.12,1.56-2.05,2-3.2.56-1.51,1.89-2.5,2.3-4.18.2-.81,1.59-1.27,1.62-2.76a3.62,3.62,0,0,1,1-2,18.5,18.5,0,0,1,1.54-4.44c.87-1.47,2.36-2.51,3.34-3.93a54.62,54.62,0,0,1,6.79-8.66,25.9,25.9,0,0,1,4.5-2.92c2.06-1.3,3.11-3.16,5-4.61a14.48,14.48,0,0,1,3.07-1.77c2.15-2.65,5.29-3.51,8.61-4.5a28.41,28.41,0,0,1,3.2-.74c1.13-.61,2.29-1.21,3.51-1.76.15-.5.36-.62.87-.4a36.47,36.47,0,0,1,4.36-1.53c0-.21.07-.43.1-.65.18.16.37.32.55.46,1.94-.54,3.88-1,5.81-1.7,2.77-.95,4.71-2.27,7.72-2.06a3.69,3.69,0,0,1,1.33.35,14.09,14.09,0,0,0,1.84-.07c.53-.06,1-.55,1.54-.87l1.75,1.21c-1.83,26.18-3.66,52.4-5.51,78.91-2.6-.88-4.86-1.76-6.26-4a19.16,19.16,0,0,0-4.67-5.43,3.68,3.68,0,0,1-.75-.87c-1.21-1.78-2.29-3.68-3.65-5.34a39.75,39.75,0,0,0-5.14-4.72,5.78,5.78,0,0,0-1.52-.56,4.88,4.88,0,0,0,.36,1.15c2.33,3.23,4.62,6.49,7.05,9.63,2.07,2.68,4.35,5.19,6.45,7.84,1.2,1.52,2.24,3.17,3.32,4.79.43.65.77,1.38,1.19,2.14a10.67,10.67,0,0,1-5.28,3.52,10.62,10.62,0,0,0-1.72.86c-.41.23-.77.64-1.21.73-1.3.26-2.82.06-3.2,1.88a.53.53,0,0,1-.39.28c-2.58.15-4.26,2.15-6.44,3.12s-4.49,1.65-6.66,2.65c-3.47,1.6-6.86,3.36-10.29,5-6.05,3-12.1,5.94-18.17,8.86-2.74,1.31-5.56,2.46-8.31,3.75a32.73,32.73,0,0,0-2.85,1.72c-1.52-3.4-2.84-6.39-4.21-9.35a3.84,3.84,0,0,1-.52-2.87c-1.55-3.87-3-7.58-3.41-11.94a45.63,45.63,0,0,1,.37-11.05C341.54,247.11,343.17,246,342.74,244.89Zm75.41,2.16v1.71l-1.42-1.09Zm-70.51,71,1-2.05.46.07-.15,2.3Zm.7,4c-1-.48-1-.48-.82-2.63C348.67,320,348.67,320,348.34,322.12Zm1.54-5c1.6.55,1.6.55,1.24,4.08L349,318.42h0Zm1.35,6.33a1.87,1.87,0,0,1,.75-.22s.2.32.16.36a7.59,7.59,0,0,1-.8.62C351.28,323.87,351.16,323.54,351.23,323.49ZM345.54,315c-.16.92-.31,1.84-.47,2.75l-.46-.06.26-2.79Zm-7.73-1.89c0,1-.26,1.68-1.47,1.56Zm-2.12,5.37a4,4,0,0,1,1,.91l-.59.66-1.27-.91C335.14,318.86,335.53,318.37,335.69,318.44Zm-1.86-12.73a4,4,0,0,1,.4.8c0,.06-.41.33-.48.28a3.14,3.14,0,0,1-.53-.61Zm-2.43,14.54c.38,0,.76-.1,1.15-.12,0,0,0,.27.07.41l-1.16.17Zm.3,6.05a4,4,0,0,1,.9-4.3C331.91,323.29,333.14,324.94,331.7,326.3Zm-.18,10.52.89-1.73C333,336.54,332.91,337.09,331.52,336.82Zm1.25-3.11c-.18.16-.5.16-1.3.39l1.21-1.7.59.51A3.09,3.09,0,0,1,332.77,333.71Zm4.68,10.06c-.92-1.09-.92-1.09.1-1.38C337.52,342.85,337.49,343.27,337.45,343.77Zm5.05,1.53,1.41-1.59.76,1.35Zm3-4.53.68,2.31C344.71,341.72,344.71,341.72,345.51,340.77Zm.67-.51c-.14-.7-.29-1.4-.44-2.1l-2.88,2.93v-1.72c-1.26.09-1.84-.48-1.34-2l1.28.47c-.16-.51-.28-.9-.4-1.3l1.73-1.33-2.22-.38c-.1-.47-.21-1-.32-1.46-.39.19-1.13-.26-1.06.81s-.53,1.46-1.43.47c-.2,1.11-.39,2.2-.59,3.38-1.68-1.19-1.68-1.19-4.55.56-.79-.51-.6-1,0-1.55l2.36-2,.93.82c.14-.1.35-.19.34-.27a7.65,7.65,0,0,1,1.38-4.92,7.63,7.63,0,0,0,.33-2.29c-1,1-1.61,2.09-2.43,2.29s-2.08.69-2.55-1.18c-.27.88-.42,1.38-.59,1.92a3.39,3.39,0,0,1-1,.05c-.93-.25-1.08-.81-.31-1.39s1.87-1.25,2.82-1.86c-.16-.44-.33-.89-.55-1.47L332.31,328l-.3-.23a19.8,19.8,0,0,0,1.55-2c.6-1,1.37-1,2.38-.27.07-.73.11-1.17.16-1.6.15,0,.33-.14.46-.1,1.23.42.41,1.35.49,2.18l1.79.61-.66-2.65c.34.05.59,0,.7.12.45.41.94.47,1.12-.12.09-.28-.3-1-.52-1.05-1.28-.09-2.57,0-3.85,0-.28,0-.56.08-1.34.21l1.24-1.65-.72-.46c.13-.9.91-.69,3.55,1,1.11-.79.78-1.95.86-3-2.11-1.57-2.11-1.57-1.4-3.57.37.55.58,1.23,1,1.45,1,.48,1.05-.51,1.34-1.08,1.3.81-.11,1.7.13,2.75.55.65,2.61-.24,2,2-.48.25-1.9.47-1,1.85,1,1.54,1.76,0,2.56-.33l1.74,1.55c0,.12-.08.25-.13.37l-2.37-.59a31.06,31.06,0,0,0,1.89,2.7c.11.13.85-.12,1.15-.37s.22-.66.51-1a6.37,6.37,0,0,1,0,5l3.24,2.31c1-.46-.5-1.88,1-1.89,1.18.9.06,1.91.18,2.83a12.07,12.07,0,0,0,1,2.5l2.71-.52c-.3-.9-.56-1.72-.83-2.54,1.44,1.55,1.51,1.83,1.52,4.4l1,.53.68.32-1.48,2.62c-.33-.23-.94-.65-1.58-1.07.07-1.17,1.45-2.13.3-3.58a2.71,2.71,0,0,1-2.42,1.56,1.26,1.26,0,0,0-1,.59C350.18,339.86,348.27,339.92,346.18,340.26Zm9.31-13.58.57-.06.18,1.79-.55.07C355.62,327.88,355.55,327.28,355.49,326.68Zm-7.17,18.12c.17-3,3.46-3.95,4.16-6.63a2.17,2.17,0,0,1-.23,2.47,15.76,15.76,0,0,0-1.56,3.16l-.5-.67Zm1.47,4.93-.15-.51,1.22-.29c.05.14.1.27.14.41Zm3,3s-.21,0-.15,0c-.4-.79-.74-1.48-1.09-2.16.68-1.23,1.28-.08,2.3-.19C353.44,351.35,353.14,352,352.83,352.7Zm1.27,1.41c0-.63-.05-1.11-.09-2.06C355.05,353.05,355.15,353.55,354.1,354.11Zm.91-5.23-1.64-.34c0-.2.07-.4.1-.6l1.66.22Zm.23-6.16a7.71,7.71,0,0,1-1,.35c-.05-.21-.11-.42-.17-.63.33-.05.66-.11,1-.14a1.27,1.27,0,0,1,.38.07C355.38,342.51,355.34,342.67,355.24,342.72Zm.28-.32c0-.71,0-1.47,1.16-1.46v3l-1.17-1.54Zm.76,3.47c.08.71.14,1.27.2,1.81C355.48,346.94,355.5,346.9,356.28,345.87Zm2.59,2.72c-1.05.1-2,.44-2.29-.83h0a2.82,2.82,0,0,0,.89-2.51c0-1.57.13-3.13.24-4.7,0-.19.28-.36.44-.56a12.26,12.26,0,0,1,.89,1.93c.3,1.11.64,2.55-.24,3.27C357.3,346.42,358,347.38,358.87,348.59Zm-1.35-16.47,2,1.31C358,333.68,358,333.68,357.52,332.12Zm2.36,2.81,1.26,1c-.15.19-.29.38-.44.56l-1.19-1.12Zm.27,9.41,1.32,1L360.24,347l1.38.14c0,1-.71,1-1.29.75a1.36,1.36,0,0,1-.73-1A15.15,15.15,0,0,1,360.15,344.34Zm-.48,10.84c.76-1.25.76-1.25,1.77-.24Zm.91-2.64-.12-.58,1.3-.21.1.46Zm-.67-2.08V349l2.3-.53C362.09,350.14,361.37,350.68,359.91,350.46Zm1.79-3.33,2-.88C363.47,348,362.42,347.09,361.7,347.13Zm1.72-2.17,1.75-1.5.66,3Zm3.24,4.06L365,350.86C364.69,349.42,364.85,348.75,366.66,349Zm-2.75,7.58c-.05-.62-.09-1.07-.14-1.8.89.48,1.77.54,1.94,1.69ZM365,353a1.47,1.47,0,0,1,.89-1.86l.42.32Zm2.28,2.5a7.3,7.3,0,0,1-.05,1.92h-.56c0-1.12,0-2.26,0-3.4a1.06,1.06,0,0,1,.73-.72c.22,0,.75.5.7.67C368,354.51,367.07,354.62,367.26,355.49Zm.57,3.6c-.17-.35-.39-.6-.34-.71a2.59,2.59,0,0,1,.6-.59c.14.18.42.42.38.54S368.12,358.77,367.83,359.09Zm1.71-16.31-.93,2.27C367.86,343.22,367.86,343.22,369.54,342.78Zm-1.11-4.94.15-1.14.59.15-.36,1.07Zm1.63,14.34c-.39-.21-.61-.25-.63-.34-.15-.61-.25-1.23-.37-1.84C369.55,350.63,370.26,351.16,370.06,352.18Zm.84,8.22c-1-1.32-1-1.36.82-1.67C371.47,359.25,371.21,359.78,370.9,360.4Zm1.94,2.18-.65-.1c.09-.4.17-.79.25-1.18l.5.06C372.91,361.76,372.88,362.17,372.84,362.58Zm-.13-2.07-.41-.05a8,8,0,0,0,.11-1.46c0-.13-.38-.23-.61-.35l-1.17-1.51c1.15-.79,1.85.61,3.08.65C373.32,358.84,373,359.68,372.71,360.51Zm-1-12.17c-.14,1-.23,1.55-.39,2.6C370.4,349.72,370.53,349.13,371.72,348.34Zm2.62,11.47c-.08-.66-.12-1-.17-1.4C375.21,358.55,375.25,358.91,374.34,359.81Zm.58-3.29c-2.2-.22-1.63-1.56-1.67-3l1.83.66C375,354.92,375,355.67,374.92,356.52Zm-1.81-12.58c.07-.48.13-1,.19-1.44l.55.06c-.07.48-.14,1-.2,1.45Zm2.43,10.28a.91.91,0,0,1-.41-.08c.05-.13.08-.31.18-.38a10.27,10.27,0,0,1,.92-.51,3.1,3.1,0,0,1,.22.59A4.27,4.27,0,0,1,375.54,354.22Zm.27-3.66,1-.38C377.05,351.45,376.45,351.22,375.81,350.56Zm.75-1.63,2-.41C378.3,349.45,378.3,349.45,376.56,348.93Zm2.21,8.73c-.24-.62-.37-1-.52-1.38C379.72,356.25,379,356.87,378.77,357.66Zm-2.53-11.61c-.05-.86-.07-1.34-.11-2C377.28,344.64,377.07,345.14,376.24,346.05Zm1.82,14.67-.78-2.52,3.44,1.14Zm2.43-17.66c-.22.44-.43.86-.68,1.34-.28-.21-.59-.33-.61-.49C379.07,342.93,379.38,342.46,380.49,343.06Zm-.09,9.56c.19.25.29.34.28.37-.24.51-.5,1-.75,1.53-.14-.07-.35-.12-.39-.22C379.22,353.49,379.53,353,380.4,352.62Zm-1.2-6.48c1.45-.92,1.45-.92,1.75,1.09Zm4.21,2.15L381.75,350C381.56,348.36,382.11,348.21,383.41,348.29Zm-.05,13.56-.41-.33.58-.87.52.44Zm.26-9.84c-.31-1.53.75-2.34,1.68-3.22C385.35,351.79,385.35,351.79,383.62,352Zm3,1.53c-.63,1.14-.63,1.14-2.12,0Zm-2.59,3.68a4.52,4.52,0,0,1-.3-1.16,4.17,4.17,0,0,1,.32-1.11C385.46,355.87,385.46,355.87,384.05,357.22Zm1,6.34-.26-.37,1.95-1c0,.12.14.59.33,1.34Zm2.81-13.31c.16-.37.21-.81.45-1a12.94,12.94,0,0,1,1.91-.86C390.13,349.81,389.31,350.3,387.87,350.25Zm1.82-2.94c0-.25,0-.44.09-.48.67-.41,1.39-1,2,.31Zm1.77,2.86,1.84.31c.25-.74.47-1.41.74-2.25.6,1.92-.11,3-2.64,4.34C390.3,351.75,391.27,351,391.46,350.17Zm1.61,38.32,2.78.23C395.07,388.93,394.26,389.79,393.07,388.49Zm2.56-34.13v2.7C393.87,355.6,393.85,355.46,395.63,354.36Zm1.33,5.19a5.13,5.13,0,0,1-.28-1.79l.83-.19c.33.74.67,1.48,1,2.23C397.84,360.54,397.23,360,397,359.55Zm-.25-6.59c1.71.4,2.06,1.17,1.35,2.71Zm4.56,15.34v-2.25C402.27,366.63,402.14,367.2,401.27,368.3Zm7.5-14,2.16-.88C410.65,355,409.91,354.47,408.77,354.3Zm3.44,22.86L411,377l.13-.58,1.19.35Zm.62-27-.16-1.56C413.9,349.09,413.9,349.09,412.83,350.13Zm5,2.74a6.6,6.6,0,0,1-2.29.07c-.65-.22-1.11-1-1.63-1.45.47-1,.62-2.31,2.27-1.18l-.93,1.35,2.62.69Zm1.11-1.68-.56-.06c.07-.39.13-.78.2-1.18l.36,0Zm.26-7.88L417,343V341.5l2.45.55C419.38,342.49,419.31,342.93,419.24,343.31Zm3.29,13.19c-.32-.2-.8-.33-.91-.61a12.27,12.27,0,0,1-.39-2.23l1.84.35h0c-.18.18-.57.42-.53.53.12.35.54.65.55,1S422.73,356.17,422.53,356.5Zm-.18-14,1.15-.93.24.24-1.06,1.09Zm.72,10.3a2.51,2.51,0,0,1,1.74-.76L423.1,354C423.07,353.57,422.88,353,423.07,352.8Zm2.39,5.32c-.31-.23-.6-.33-.63-.49-.24-1.16.49-1.24,1.69-1.35Zm2-12.45c-.08.06-.36-.19-.68-.37.26-.3.41-.62.65-.71s.41.27.63.42A2.94,2.94,0,0,1,427.43,345.67Zm1.32-13.06a3.2,3.2,0,0,1-1.81.53,3.1,3.1,0,0,1-.62-.07,3.15,3.15,0,0,1-1.87.57,3.2,3.2,0,0,1-1.61-.42,3.31,3.31,0,0,1-1.63.42,3.51,3.51,0,0,1-1.06-.18,3.35,3.35,0,0,1-1.43.3,3.06,3.06,0,0,1-2.18-.82,3.25,3.25,0,0,1-1.68.45,3.16,3.16,0,0,1-2-.62,3.36,3.36,0,0,1-1.28.24,3.19,3.19,0,0,1-1.72-.47l-5.38-2.28-.46.6c-1.06-.66-1.86-2-3.39-1.27-.59-1.53-2.05-.64-3-1.07-1.16-.51-2.61-.57-3.52-1.32-1.68-1.38-4-.69-5.6-2.09a40.64,40.64,0,0,0-3.81-3,5.66,5.66,0,0,0-2-.32c-.12-1.52-1.61-2.26-3.05-2.92a9,9,0,0,1-2.6-1.8,5.19,5.19,0,0,0-2.46-1.68,9.77,9.77,0,0,1-2.81-1.8c-.76-.53-1.67-1.67-2.2-1.51-1.36.43-1.41-.9-1.76-1.26-1.39-1.4-3.36-2.27-4.17-4.19a5.82,5.82,0,0,0-2.38-2.75,5.61,5.61,0,0,1-2.08-2.82,14.33,14.33,0,0,0-3.15-4.21c-1.76-1.88-2.18-4.14-2.52-6.38,2.15-1.17,4.05-2.27,6-3.25a28.8,28.8,0,0,1,4.14-1.74c2.59-.8,4.78-2.42,7.38-3.33a24.72,24.72,0,0,0,8-4.41c.86-.75,2.21-.92,3.31-1.42,4.68-2.14,9.35-4.26,14-6.47a23.72,23.72,0,0,0,2.9-1.95c.34-.22.69-.58,1-.6,2.4-.12,4-2.2,6.25-2.56a1.18,1.18,0,0,0,.66-.25c1.71-1.85,4.05-2.38,6.3-3.15a18.74,18.74,0,0,0,2.76-1.49,7.72,7.72,0,0,1,.18,1.28c-.16,2.88-.37,5.77-.5,8.65s-.17,5.66-.28,8.49c-.16,4.14-.3,8.27-.56,12.41-.18,2.69-.61,5.36-.84,8.05-.14,1.73.36,3.38.6,5.62a7.42,7.42,0,0,0,2.24-6,27.75,27.75,0,0,1,.13-3.55q.25-5.1.69-10.18c.18-2,.59-4,.76-6,.11-1.29-.05-2.59,0-3.89,0-2.42.11-4.84.16-7.25,0-.16-.12-.35-.07-.47,1.17-2.93.88-6.06,1.14-9.39a5.75,5.75,0,0,1,1.55.9q3.19,3.81,6.28,7.7c2.68,3.37,5.31,6.77,7.95,10.16,1.18,1.52,2.85,2.91,3.34,4.63.41,1.41,1.54,1.65,2.14,2.57a28.1,28.1,0,0,0,2.26,2.86,20.49,20.49,0,0,0,3.14,3.47c1.33,1,2.18,2.67,3.19,4.08a.52.52,0,0,1,0,.38,3.05,3.05,0,0,1,.86,1.1,1.2,1.2,0,0,1,.94,1.29,7.22,7.22,0,0,1,3.18,2.34c.64,1,.78,2.34,1.37,3.36a32.78,32.78,0,0,0,2.91,3.71c2.89,3.4,7.19,6.91,8.94,11.14a3.12,3.12,0,0,1,1.48,2.12.47.47,0,0,1,.2,0c.65,1.57.59,2.48-.53,2.78l-.23.08a3,3,0,0,1-2.56,1.26h0c-2.9.47-5.21,2.77-8.29,2.64-.4,0-.81.48-1.21.74s-.89.81-1.33.81c-.95,0-1.85-.19-2.42.83a.52.52,0,0,1-.46.1c-2-.85-3.24.76-4.83,1.28-1.28.41-2.62.67-4.15,1.05a3.25,3.25,0,0,1-1.59.39,3.32,3.32,0,0,1-1.53-.36,3.37,3.37,0,0,1-2.79.5,3.43,3.43,0,0,1-2.71.15,3,3,0,0,1-2.18.83,3.73,3.73,0,0,1-1-.13,3.16,3.16,0,0,1-1.77.51A3.32,3.32,0,0,1,428.75,332.61ZM473.68,339l1,1.23-.41.23-.92-1.18Zm-.23-1.27a7.16,7.16,0,0,1,1.16-1.52v2.5C474,338.18,473.4,337.82,473.45,337.7Zm1.84,5.93c-.43.78-.62,1.45-.84,1.46-1.11.08-.95.85-1.21,1.62l-.77-2.19Zm-2.8-3,.47.17-.57,1.55-.58-.23C472,341.63,472.27,341.14,472.49,340.64Zm-.48-5.32a3.38,3.38,0,0,1,.68-.53c.05,0,.28.28.52.54-.26.24-.46.43-.67.61Zm.14,14.25c1.45.6.81,1-.17,1.5l1.24.69-2.1,1.84c-.13-.68-.26-1.34-.42-2.13Zm-3.94,0c.1-.82.64-1.33,1.41-1.14.52.12.91.74,1.45,1.23C470.14,350.26,469.19,350.93,468.21,349.56Zm-2.55-1.32c-.32-.18-.81-.28-.93-.55a1.05,1.05,0,0,1,.23-1,12.2,12.2,0,0,1,2-.77l.74,2.34C466.9,348.29,466.25,347.09,465.66,348.24Zm1.8,3.72a9.51,9.51,0,0,1-2-.25c-.35-.13-.82-.61-.81-.92a1.51,1.51,0,0,1,.78-1c.21-.11.77.13,1,.38A11.4,11.4,0,0,1,467.46,352Zm0-16.13c.3-1.67.45-1.76,2.53-1.38Zm.67,17.85h1.1a2.53,2.53,0,0,1-.11.66,6.35,6.35,0,0,1-1.07-.08C468.11,354.07,468.14,353.87,468.17,353.68Zm2.15-12.76c-.2,0-.37-.24-.55-.37l.47-.61c.2.25.42.41.46.6S470.43,340.94,470.32,340.92Zm-19.42,1.32,3.29.71-1.39,2C452.25,344.14,451.74,343.42,450.9,342.24ZM450,354.6l-.81-2.72C451.28,352.45,451.47,353,450,354.6Zm1.75-3.78,2.93.47-.77-1.67,1.61-.92,2.36,3.71-.34.34L455.73,351c-.18.53-.29.88-.5,1.48l-3.56-1.2Zm3.61-5.54,1-1.57C456.74,344.78,456.89,345.47,455.4,345.28Zm.63-2.54,1.8-1a11.44,11.44,0,0,0,3.38,2l-.34.56Zm4.8,4.1a9.27,9.27,0,0,1-1.33.46c-1,.17-1.05-.4-.76-1.36Zm-1.93,2,3.58.61a6.58,6.58,0,0,1,.4,4c-2.29.16-3.37-1.38-4.49-3Zm2.68-1.64c1.08-1.23,1.3-1.18,2.38.5Zm-12.41-2.63-.09,1.67-.51-.06c.1-.55.19-1.1.29-1.65Zm-1.64-1.23c.2.74.08,1.41-.9,1.51l-.66-2.26A1.05,1.05,0,0,1,447.53,343.37ZM445.66,341h2.23C446.9,341.67,446.9,341.67,445.66,341Zm1.29,4.73,1,1.18-.29.31-1.22-1C446.62,346.09,446.79,345.93,447,345.76Zm-3.22-2.08-1-1.5.35-.27,1.1,1.45Zm.31,4.41c-.19.26-.28.48-.38.49-1,.05-1.69-.16-1.4-1.77Zm-4,9.8L439,360.5l-.5-.2C438.34,359.25,438.38,358.26,440.07,357.89Zm-2.85-16.3.15-.53,2.58.71c-.08.21-.16.41-.25.62Zm-5.16,4.17-.71.06V344.4c.24,0,.67,0,.68.09A8.94,8.94,0,0,1,432.06,345.76Zm-1,18.32c-.06,0-.14-.25-.21-.39l1.18-.54.28.71C431.91,363.94,431.5,364,431.08,364.08Zm4.32,8c-3.26-1.88-3.31-2-1.81-3a5.11,5.11,0,0,0,.91,1.7C435,371.16,435.74,371.16,435.4,372.09Zm-.81-10.82c.39,1.31.78,2.61,1.16,3.9C434.23,364.65,433.88,363.78,434.59,361.27Zm-.62-1.79,1.78-1.4.73,1.22C435.58,359.38,434.89,360.73,434,359.48Zm.18-18.71c-.1-.1.45-.82.7-1.26l2.66,3.81C435.59,343.24,435.06,341.73,434.15,340.77Zm5.06,30.56c.17-1.46-2.8-2.13-.74-4.23.4.41.84.69,1,1.07.82,2.26.8,2.26,3.06,1.83C441.93,370.74,441.33,371,439.21,371.33Zm.57-4.9c.31-.46.56-.83.82-1.2.62.8,1.8,1.18,2,2.75Zm4.51,6.61c-.28-.8-.47-1.35-.67-1.89l.34-.2c.24.29.43.69.74.82s.63-.1,1.38-.25Zm-.38-2.83c-.61-.49-1.05-1-.12-1.64s1.39-.49,2.7.93Zm.33-5c.77-1,1.29-.95,1.79.11Zm2.59,6.69v-1.4l1.93.7Zm.89-6-.09-.35,1.36-.52.09.71Zm2.1,1.17a3.86,3.86,0,0,0,.53,1c-1.17.52-1.55-.3-2.06-1.24C448.94,366.5,449.48,365.7,449.82,367.12Zm-.79,2.36c.27.09.52.1.63.23.41.49.77,1,1.21,1.62l-1.33.25C449.36,370.81,449.21,370.21,449,369.48Zm1.29,7.93c.1-1.08-.51-2.21.84-3C451.71,376.71,451.71,376.71,450.32,377.41Zm2-.63,1.21-1.62C453.67,376.58,453.67,376.58,452.33,376.78Zm1.54-7.32c-.36-.21-.91-.39-.91-.55a1.63,1.63,0,0,0-1.34-1.76l-1.25.92c-.05-1.09-.11-2.2-.17-3.29,1.81-.32,1.81-.32,1.31,1.52A2.54,2.54,0,0,1,453.87,369.46Zm2.91,5.62c-.51-1.19.64-1.35,1.14-1.93C458.79,374.33,458.79,374.33,456.78,375.08Zm0-3.33c1.16-.46,1.56-1.44,2.76-.9C459.05,372,458.24,371.94,456.81,371.75Zm2-2.36c-1.06-.76-1.21-.79-2.85-.57-.06-.05-.18-.13-.17-.16.21-.51.44-1,.71-1.63,1,.21,2.09.47,3.15.61.22,0,.49-.32.74-.55h0a2.42,2.42,0,0,1,.47-.06,4,4,0,0,1,.5.16C461.3,368.86,459.65,368.68,458.79,369.39Zm-.12-3.42a5.59,5.59,0,0,1,1.57-.07c.11,0,.09.68.12,1.11C459.79,366.83,458.89,367.45,458.67,366Zm9,3.43v-1.17l.28,0,.15,1.18Zm-1-3.75,1.62-.41C468,367.05,467.23,365.67,466.7,365.65Zm6.18-4.34c0-.65.09-1.29.14-2C474.21,359.92,474.21,359.92,472.88,361.31Zm5.8-8c-.69,1.15-1.44,2.28-.79,3.86l-1.64-1.94.74-1.45-1.56-.15a9,9,0,0,1,.22,2.34c-.15.85-1.17.91-1.66,1.32-.87.72-2.43.89-2.83,2.45-.13-.45-.25-.89-.38-1.36h-2l1,1.76-.3.27-1.38-1.14-.32.21,1.37,3,2-.16c-.11.25-.14.56-.3.64-.68.35-1.39.63-2.21,1-.33-1.14-.85-2-2.19-1.22.62,1.42-1.48,1.35-1.33,2.55-.75-1.12-.14-2.64-1.2-3.62-.09-.07.15-.57.31-.82.4-.59.84-1.15,1.41-1.92l-2.08-.53c.07.91,1.24,1.79-.26,2.34-.21.07-.23.87-.2,1.32a10.32,10.32,0,0,0,.38,1.63,17,17,0,0,1-7.69-1.57l1.2-1c-.05-.56-.12-1.38-.2-2.2-.89-.55-1.76-.81-2.52.21.23.58,1.84,1.32-.54,1.62-.31-.93-.65-1.92-.9-2.69,0,1.12-.91,1.47-2.16,1.31.23,2.49.23,2.49,1.33,3.21v-2.22l.34-.06a10.2,10.2,0,0,1,.64,2,1.81,1.81,0,0,0,1.3,1.82c1.17.39.9,1.39.83,2.45-2.27-1.41-3.64-3.88-6.52-3.89l-1.34,1.23-.9-.68c-.56-.64-1.12-1.18-2.08-.68s-2.29-.21-3,1.18c.76.56,2.36-.77,2.41,1.14l-3.18.31-.66-.53c-.8,1.12-1.81.13-2.74.13l1.67-.42c-.38-.58-.72-1.07-1.13-1.67.92-.18,1.22-1.88,2.72-1.21.62-1.37,2-.79,3.11-1.23a2.33,2.33,0,0,0-.28-2.67L442,356.43c.06-.68.11-1.36.17-2.11,2.94-.18,5,2.17,7.63,2.73a11.55,11.55,0,0,1,1.18-1.79,10.76,10.76,0,0,1,1.78-1.22v2.31l.42.16.91-2.11c1.81.18.33,2.46,1.81,2.84l2.79.35L456.55,356c.52-1,.93-1.67,2.39-1.15,1,.36,2.26-.2,3.32,0a13.34,13.34,0,0,1,3,1.52c.08-.79.12-1.18.19-1.84.75.14,1.66.06,2.19.47a3.41,3.41,0,0,0,3.31.41l-.26-1.09c.62-.05,1.21-.59,1.73.39a1,1,0,0,0,.93.32,1.33,1.33,0,0,0,.39-1c.08-1.43.46-1.82,1.78-1.72.46,0,1.08.23,1.36,0,1.05-.83,1.41.34,2.07.59Zm.25-.4h0c-.3-.82-.59-1.63-.89-2.43l-1.66.51c.11-.55.16-.85.24-1.24l-1.45-.25c.09-.7.18-1.39.3-2.24l1.66.65,1.59.63C478.73,349.77,480,351.27,478.93,352.94Zm-3.54-18.44c0-.31,0-.73.14-.81.7-.39,1.15-.08,1.42.65Zm3.56,4.85c-.47-.52-.83-.91-1.43-1.55C479.22,337.49,479.47,338,479,339.35Zm-.13-4.58c0-.22,0-.44.05-.65l1.3.28c0,.15,0,.29-.07.44Zm-.85,5.74.55.33c-.27.43-.54.87-.87,1.38C476.8,341,477.57,340.86,478,340.51ZM477.1,346l2.08-.15C478.59,347.53,478.56,347.51,477.1,346Zm2.11-.24a3.75,3.75,0,0,0-.75-.74,3,3,0,0,0-1-.18l-.06-.52,2.39-.34.94-2.27,1.52.77c.13.69.24,1.37.39,2.25l1.89.36c-.07.34-.14.64-.29,1.29L481,344.55Zm1-4.84c1.68-.58,1.72-.59,1.82.45Zm3.21,8.79-3,.66c.29-1.2.49-2.2,1.84-2.14C483.19,348.31,483.34,349,483.43,349.75Zm-3.66,5.86V353.3a11.8,11.8,0,0,1,1.65.32c1.06.38.86,1.17.5,2.25Zm3.67,3.72c-.52-.36-1.05-.71-1.58-1.06l.4-.57,1.54,1.12Zm1.32-5c-.87-1.64-3.07-.6-3.37-2.72l1.69.93,1.29-2.27.39.14Zm-.47-12.28-2,.42-.16-1,3.84-1.05-.61,3.4C483.71,344,484.37,342.87,484.29,342.05ZM482.79,331l.49-.31,1.19,2.05C483.33,332.08,482.74,331.73,482.79,331Zm2.52,25.79,2.06-1.45C487.48,357.06,487.48,357.06,485.31,356.77ZM494,305.5c-.48.62-1.64.71-2.51,1.05.42,1.49-1.66,1.57-2,2.78-1.82-.09-2.54,1.63-3.65,2.51-3.69,2.93-7.09,6.22-11.42,8.27-.12.05-.15.29-.27.39a2.46,2.46,0,0,1-.59.22c-.93-1.22-1.88-2.48-2.85-3.72a7.68,7.68,0,0,0-1.42-1.62,1.89,1.89,0,0,1-1-1.41c-.14-.76-1-1.38-1.54-2.07-2.25-2.88-4.39-5.85-6.75-8.63a123.13,123.13,0,0,1-8.16-10.62c-1.6-.25-1.4-2-2.26-2.83s-1.79-2-2.66-3-1.8-2.09-2.62-3.2-1.67-2.51-2.57-3.72c-.71-1-1.55-1.84-2.3-2.78-.54-.69-1-1.44-1.55-2.12q-2.79-3.48-5.62-6.92c-.14-.17-.44-.24-.54-.43-1.74-3.17-4.42-5.61-6.65-8.4a13.08,13.08,0,0,1-.92-1.66l.13,0a3.58,3.58,0,0,1-.4-1.47,3.77,3.77,0,0,1-1.69-2.83c0-.21-.26-.4-.4-.6-1.71-2.48-1.39-5.1-1.26-8s1.26-5.85,1-8.93c-.23-2.33.52-4.75.74-7.13s.31-5,.52-7.44-.29-5.26.91-7.82c.38-.82-.29-2.11-.36-3.19-.06-.89-.68-1.81.28-2.69.31-.29.18-1.09.22-1.65.3-3.51.68-7,.85-10.54.14-2.76,0-5.54,0-8.3a3.75,3.75,0,0,1,.13-1.21c1-2.87.36-5.85.62-8.75.19-2.21-.11-4.55,1-6.67.27-.49,0-1.25.09-1.88s.2-1.4.36-2.48l2.75,1.36c.86-2,2.56.35,3.68-.83l1,1.73c.15-.8.26-1.36.32-1.66,1.58.1,3.11.23,4.64.27,1,0,1.93-.1,2.89-.14a.71.71,0,0,1,.45.16c2,1.88,4.64,1.52,7,2.27,2.53.82,5,1.71,7.48,2.75q5,2.11,9.89,4.53a28.81,28.81,0,0,1,3.76,2.62c.27.19.44.61.7.66,3.33.67,5,3.89,7.88,5.19a12.44,12.44,0,0,1,2.29,1.79c1,.8,2.05,1.54,3,2.4.76.69,1.38,1.54,2.1,2.28,1.51,1.56,3.07,3.09,4.59,4.65,2.88,3,6,5.75,8.55,9,1.82,2.27,3.54,4.7,5.23,7.11,1.86,2.66,3,5.75,5,8.21a45.09,45.09,0,0,1,5.08,8.39,17.42,17.42,0,0,1,1.64,6.38c0,.12,0,.25,0,.38,2.79,8.65,5.55,18.2,2.17,26.87a3.41,3.41,0,0,1-.55.93c-.61,2.85-1.42,5.66-2.18,8.47a53.76,53.76,0,0,1-5.33,11.92c-2.11,1-1.95,3.78-4.07,4.79.11,1.39,1.2,3.24-1.42,3.42,0,.59.09,1.18.15,2l-4,2.46c.58,1.18-.31,2.06-1.31,2.92A41.37,41.37,0,0,0,494,305.5Zm2.85,39.31,1.07,1.3-1.66.46C496.49,345.84,496.62,345.44,496.83,344.81Z" transform="translate(-283.81 -51.07)"/><path class="cls-2" d="M363.12,403.35h7.54v1.38h-6v5.06h5v1.38h-5v7.52h-1.54Z" transform="translate(-283.81 -51.07)"/><path class="cls-2" d="M374.67,403.28h4.14c1.52,0,3.43,1.31,3.43,4.07,0,1.89-.76,3.68-2.65,4.32l3.18,6.58-1.38.67-3.45-7.13h-1.73v6.83h-1.54Zm1.54,7.13h2.26c1.33,0,2.16-1,2.16-3.06s-1-2.69-2.53-2.69h-1.89Z" transform="translate(-283.81 -51.07)"/><path class="cls-2" d="M387,403.35h7.47v1.38h-5.93v5.06h4.89v1.38h-4.89v6.14h5.93v1.38H387Z" transform="translate(-283.81 -51.07)"/><path class="cls-2" d="M405.67,403.35h1.94l.45,15.34h-1.63l-.3-12.79h0l-2.62,7.71-2.62-7.71h-.05l-.3,12.79h-1.61l.46-15.34h1.91l2.21,6.51Z" transform="translate(-283.81 -51.07)"/><path class="cls-2" d="M419.47,403.35h1.93l.46,15.34h-1.63l-.3-12.79h-.05l-2.62,7.71-2.62-7.71h-.05l-.29,12.79h-1.61l.46-15.34h1.9l2.21,6.51Z" transform="translate(-283.81 -51.07)"/><path class="cls-2" d="M426.23,403.35h7.47v1.38h-5.93v5.06h4.9v1.38h-4.9v6.14h5.93v1.38h-7.47Z" transform="translate(-283.81 -51.07)"/><path class="cls-2" d="M437.62,404.73v-1.38h4.05c3.08,0,4.89,1.36,4.89,7.68,0,3.38-.18,7.66-4.85,7.66h-4.09v-1.38h1.24V404.73Zm2.78,12.58h1.27c1.86,0,3.28-.49,3.28-6.28s-1.56-6.3-2.92-6.3H440.4Z" transform="translate(-283.81 -51.07)"/></svg>