<svg id="Layer_1" data-name="Layer 1" xmlns="http://www.w3.org/2000/svg" viewBox="0 0 83.45 15.63"><defs><style>.cls-1{fill:#2d2828;}</style></defs><title>logo-text</title><path class="cls-1" d="M363.12,403.35h7.54v1.38h-6v5.06h5v1.38h-5v7.52h-1.54Z" transform="translate(-363.12 -403.28)"/><path class="cls-1" d="M374.67,403.28h4.14c1.52,0,3.43,1.31,3.43,4.07,0,1.89-.76,3.68-2.65,4.32l3.18,6.58-1.38.67-3.45-7.13h-1.73v6.83h-1.54Zm1.54,7.13h2.26c1.33,0,2.16-1,2.16-3.06s-1-2.69-2.53-2.69h-1.89Z" transform="translate(-363.12 -403.28)"/><path class="cls-1" d="M387,403.35h7.47v1.38h-5.93v5.06h4.89v1.38h-4.89v6.14h5.93v1.38H387Z" transform="translate(-363.12 -403.28)"/><path class="cls-1" d="M405.67,403.35h1.94l.45,15.34h-1.63l-.3-12.79h0l-2.62,7.71-2.62-7.71h-.05l-.3,12.79h-1.61l.46-15.34h1.91l2.21,6.51Z" transform="translate(-363.12 -403.28)"/><path class="cls-1" d="M419.47,403.35h1.93l.46,15.34h-1.63l-.3-12.79h-.05l-2.62,7.71-2.62-7.71h-.05l-.29,12.79h-1.61l.46-15.34h1.9l2.21,6.51Z" transform="translate(-363.12 -403.28)"/><path class="cls-1" d="M426.23,403.35h7.47v1.38h-5.93v5.06h4.9v1.38h-4.9v6.14h5.93v1.38h-7.47Z" transform="translate(-363.12 -403.28)"/><path class="cls-1" d="M437.62,404.73v-1.38h4.05c3.08,0,4.89,1.36,4.89,7.68,0,3.38-.18,7.66-4.85,7.66h-4.09v-1.38h1.24V404.73Zm2.78,12.58h1.27c1.86,0,3.28-.49,3.28-6.28s-1.56-6.3-2.92-6.3H440.4Z" transform="translate(-363.12 -403.28)"/></svg>